# xmcd
#
# Track frame offsets: 
#        150
#        19433
#        31305
#        41003
#        52717
#        68341
#        83298
#        109357
#        130286
#        143056
#        158651
#        174546
#        186141
#
# Disc length: 2717 seconds
#
# Revision: 0
# Processed by: cddbd v1.5.2PL0 Copyright (c) Steve Scherf et al.
# Submitted via: ExactAudioCopy v0.99pb5
#
DISCID=9f0a9b0d
DTITLE=Hotwires - Live @ Grey Eagle 5.16.08 and Studio Demo
DYEAR=2009
DGENRE=Bluegrass
TTITLE0=EMD
TTITLE1=Guilt Lay
TTITLE2=Alberta Clipper
TTITLE3=She's Gone Again
TTITLE4=Loneliness and Desperation
TTITLE5=Gone Gone Gone
TTITLE6=Water of Love
TTITLE7=Raining in LA
TTITLE8=I Know You Too Well
TTITLE9=Don't Know The Blues
TTITLE10=Sunny Side
TTITLE11=How Can It Be
TTITLE12=Wild Geese
EXTD=
EXTT0=
EXTT1=
EXTT2=
EXTT3=
EXTT4=
EXTT5=
EXTT6=
EXTT7=
EXTT8=
EXTT9=
EXTT10=
EXTT11=
EXTT12=
PLAYORDER=
